<svg width="88" height="88" viewBox="0 0 88 88" fill="none" xmlns="http://www.w3.org/2000/svg">
<path d="M80.6667 42.1667V53.5333C80.6667 61.7474 80.6667 65.8545 79.0681 68.9919C77.662 71.7516 75.4183 73.9953 72.6586 75.4014C69.5212 77 65.4141 77 57.2 77H30.8C22.5859 77 18.4789 77 15.3415 75.4014C12.5818 73.9953 10.3381 71.7516 8.93195 68.9919C7.33337 65.8545 7.33337 61.7474 7.33337 53.5333V34.4667C7.33337 26.2526 7.33337 22.1455 8.93195 19.0081C10.3381 16.2484 12.5818 14.0047 15.3415 12.5986C18.4789 11 22.5859 11 30.8 11H45.8334M69.6667 29.3333V7.33334M58.6667 18.3333H80.6667M58.6667 44C58.6667 52.1002 52.1002 58.6667 44 58.6667C35.8999 58.6667 29.3334 52.1002 29.3334 44C29.3334 35.8998 35.8999 29.3333 44 29.3333C52.1002 29.3333 58.6667 35.8998 58.6667 44Z" stroke="#D4D4D4" stroke-width="2" stroke-linecap="round" stroke-linejoin="round"/>
</svg>
